<svg width="16" height="16" viewBox="0 0 16 16" fill="none" xmlns="http://www.w3.org/2000/svg">
  <circle cx="8" cy="8" r="8" fill="#063D74"/>
  <path
    d="M7 1.57735C7.6188 1.22008 8.3812 1.22008 9 1.57735L13.0622 3.92265C13.681 4.27992 14.0622 4.94017 14.0622 5.6547V10.3453C14.0622 11.0598 13.681 11.7201 13.0622 12.0774L9 14.4226C8.3812 14.7799 7.6188 14.7799 7 14.4226L2.93782 12.0774C2.31902 11.7201 1.93782 11.0598 1.93782 10.3453V5.6547C1.93782 4.94017 2.31902 4.27992 2.93782 3.92265L7 1.57735Z"
    fill="white"/>
  <path
    d="M7.66474 11.4376H3.61333V10.4932L5.47377 8.12751C5.70986 7.80013 5.883 7.51366 5.99318 7.26812C6.10651 7.01943 6.16317 6.78176 6.16317 6.55511C6.16317 6.24976 6.10965 6.01051 6.00262 5.83738C5.89874 5.66424 5.74764 5.57767 5.54932 5.57767C5.33211 5.57767 5.15897 5.67841 5.02991 5.87987C4.90399 6.08134 4.84103 6.36466 4.84103 6.72982H3.5C3.5 6.308 3.58657 5.92237 3.75971 5.57295C3.93599 5.22353 4.18153 4.9528 4.49633 4.76078C4.81427 4.5656 5.17314 4.46802 5.57293 4.46802C6.18678 4.46802 6.66212 4.63801 6.99895 4.97799C7.33893 5.31482 7.50892 5.79488 7.50892 6.41817C7.50892 6.80537 7.41448 7.19887 7.2256 7.59866C7.03987 7.9953 6.70147 8.48481 6.21039 9.06718L5.32739 10.3279H7.66474V11.4376Z"
    fill="#063D74"/>
  <path
    d="M12.5 8.59499C12.5 9.54567 12.3269 10.2728 11.9806 10.7765C11.6375 11.2802 11.1464 11.532 10.5073 11.532C9.87461 11.532 9.3851 11.2881 9.03882 10.8001C8.6957 10.309 8.51784 9.60705 8.50525 8.69415V7.39561C8.50525 6.44808 8.67681 5.72405 9.01994 5.22353C9.36306 4.71985 9.85572 4.46802 10.4979 4.46802C11.1401 4.46802 11.6327 4.71671 11.9759 5.21408C12.319 5.71146 12.4937 6.42132 12.5 7.34367V8.59499ZM11.159 7.20202C11.159 6.66057 11.1055 6.25448 10.9984 5.98376C10.8914 5.71303 10.7246 5.57767 10.4979 5.57767C10.0729 5.57767 9.85257 6.07347 9.83683 7.06508V8.77914C9.83683 9.33318 9.89035 9.74556 9.99738 10.0163C10.1076 10.287 10.2775 10.4224 10.5073 10.4224C10.7246 10.4224 10.8851 10.2965 10.989 10.0446C11.096 9.78963 11.1527 9.40086 11.159 8.8783V7.20202Z"
    fill="#063D74"/>
</svg>