<svg width="16" height="16" viewBox="0 0 16 16" fill="none" xmlns="http://www.w3.org/2000/svg">
  <circle cx="8" cy="8" r="8" fill="#063D74"/>
  <path
    d="M7.48644 0.807373C7.80266 0.618112 8.19734 0.618112 8.51356 0.807373L13.9007 4.03167C14.1976 4.20939 14.3816 4.52799 14.387 4.874L14.4858 11.1516C14.4916 11.52 14.2942 11.8618 13.9722 12.0411L8.48632 15.0943C8.18394 15.2626 7.81606 15.2626 7.51368 15.0943L2.02778 12.0411C1.70577 11.8618 1.50843 11.52 1.51422 11.1516L1.61297 4.874C1.61841 4.52799 1.80236 4.20939 2.09929 4.03167L7.48644 0.807373Z"
    fill="white"/>
  <path
    d="M7.66474 11.4376H3.61333V10.4932L5.47377 8.1275C5.70986 7.80011 5.883 7.51365 5.99318 7.26811C6.10651 7.01942 6.16317 6.78175 6.16317 6.5551C6.16317 6.24974 6.10965 6.0105 6.00262 5.83736C5.89874 5.66422 5.74764 5.57766 5.54932 5.57766C5.33211 5.57766 5.15897 5.67839 5.02991 5.87986C4.90399 6.08133 4.84103 6.36464 4.84103 6.72981H3.5C3.5 6.30798 3.58657 5.92236 3.75971 5.57293C3.93599 5.22351 4.18153 4.95279 4.49633 4.76076C4.81427 4.56559 5.17314 4.468 5.57293 4.468C6.18678 4.468 6.66212 4.63799 6.99895 4.97797C7.33893 5.3148 7.50892 5.79486 7.50892 6.41816C7.50892 6.80536 7.41448 7.19885 7.2256 7.59864C7.03987 7.99528 6.70147 8.48479 6.21039 9.06716L5.32739 10.3279H7.66474V11.4376Z"
    fill="#063D74"/>
  <path
    d="M12.5 8.59497C12.5 9.54565 12.3269 10.2728 11.9806 10.7765C11.6375 11.2802 11.1464 11.532 10.5073 11.532C9.87461 11.532 9.3851 11.288 9.03882 10.8001C8.6957 10.309 8.51784 9.60704 8.50525 8.69413V7.3956C8.50525 6.44807 8.67681 5.72404 9.01994 5.22351C9.36306 4.71984 9.85572 4.468 10.4979 4.468C11.1401 4.468 11.6327 4.71669 11.9759 5.21407C12.319 5.71144 12.4937 6.42131 12.5 7.34366V8.59497ZM11.159 7.202C11.159 6.66055 11.1055 6.25447 10.9984 5.98374C10.8914 5.71302 10.7246 5.57766 10.4979 5.57766C10.0729 5.57766 9.85257 6.07346 9.83683 7.06506V8.77913C9.83683 9.33316 9.89035 9.74555 9.99738 10.0163C10.1076 10.287 10.2775 10.4224 10.5073 10.4224C10.7246 10.4224 10.8851 10.2964 10.989 10.0446C11.096 9.78962 11.1527 9.40085 11.159 8.87829V7.202Z"
    fill="#063D74"/>
</svg>
